<svg width="1024" height="1366" viewBox="0 0 1024 1366" fill="none" xmlns="http://www.w3.org/2000/svg">
<rect width="1024" height="1366" fill="white"/>
<path d="M538.668 682.165C589.455 690.695 622.792 675.981 632.15 664.29C633.905 689.734 604.954 753 510.207 753C434.409 753 399.086 694.495 391.776 671.573C395.285 661.945 416.894 651.139 457.353 655.022C500.34 659.148 501.822 675.976 538.668 682.165Z" fill="#8EE8D2" fill-opacity="0.5"/>
<path d="M497.942 677.6C529.844 650.33 600.756 654.652 632.224 660.222C630.326 690.968 604.229 752.192 515.032 751.122C425.836 750.053 401.909 691.413 401.095 662.227C420.085 678.714 466.039 704.87 497.942 677.6Z" fill="#BFEDE2" fill-opacity="0.5"/>
<path d="M512 753C485.327 753 460.986 746.888 439.909 734.943C418.646 722.905 402.325 706.238 391.414 685.31C380.502 664.661 375 642.437 375 619.38C375 575.858 387.963 541.226 413.423 516.41C438.884 491.593 472.178 479 512.187 479C538.393 479 562.361 484.926 583.438 496.501C604.701 508.169 621.115 524.744 632.306 545.671C643.404 566.413 649 590.211 649 616.417C649 642.993 643.125 667.161 631.467 688.181C619.716 709.479 602.836 725.776 581.293 736.703C559.936 747.537 536.621 753 512 753ZM512.187 491.964C475.628 491.964 445.505 503.261 422.563 525.67C399.621 547.986 388.057 579.47 388.057 619.38C388.057 640.4 393.093 660.586 402.978 679.384C412.771 697.996 427.413 712.905 446.438 723.739C465.556 734.573 487.659 740.129 512.093 740.129C534.662 740.129 555.926 735.128 575.417 725.22C594.629 715.497 609.644 700.959 620.089 681.977C630.628 662.809 636.037 640.77 636.037 616.417C636.037 592.341 630.907 570.58 620.835 551.783C610.856 533.078 596.214 518.355 577.189 507.891C557.978 497.335 536.155 491.964 512.187 491.964Z" fill="#A0CA77"/>
<path fill-rule="evenodd" clip-rule="evenodd" d="M564.133 621.047H564.319L530.466 525.948C527.948 518.817 518.342 517.521 513.958 523.633L454.924 605.768H455.111C445.785 619.195 440.656 636.048 444.759 655.771C449.049 676.513 463.691 694.57 483.182 701.793C487.529 703.405 491.888 704.508 496.209 705.139C493.451 694.636 494.211 677.163 496.636 657.807C489.604 646.173 472.251 617.157 474.789 618.269C479.793 620.357 487.448 628.605 498.719 643.144C505.334 601.024 517.316 556.135 517.316 556.135L512.145 705.373C539.748 702.134 562.936 680.154 567.117 650.678C568.609 640.4 567.304 630.307 564.133 621.047Z" fill="#A0CA77"/>
<path d="M451.849 801.838V803.944H446.155V801.838H451.849ZM446.155 807.558V805.322H451.849V807.558H446.155ZM453.669 809.04V800.356H444.257V823.002H446.155V809.04H453.669ZM452.941 815.072V812.264H456.581V815.072H452.941ZM461.833 816.71V815.072H458.297V812.264H461.261V810.678H448.443V812.264H451.251V815.072H447.949V816.71H451.199C451.043 818.218 450.315 820.376 448.131 821.702C448.547 821.962 449.119 822.508 449.405 822.846C451.901 821.156 452.733 818.452 452.889 816.71H456.581V822.508H458.297V816.71H461.833ZM457.803 807.584V805.322H463.705V807.584H457.803ZM463.705 801.838V803.944H457.803V801.838H463.705ZM465.603 800.356H455.957V809.066H463.705V820.454C463.705 820.87 463.575 821.026 463.159 821.026C462.769 821.052 461.365 821.052 459.935 821C460.221 821.52 460.507 822.43 460.559 822.924C462.509 822.95 463.809 822.898 464.589 822.586C465.343 822.248 465.603 821.624 465.603 820.48V800.356ZM491.135 810.08C494.203 809.898 498.545 809.56 502.757 809.248C503.095 809.924 503.355 810.548 503.537 811.094L505.201 810.158C504.525 808.26 502.731 805.4 501.015 803.242L499.481 804.022C500.313 805.088 501.145 806.336 501.847 807.558C499.429 807.714 497.011 807.87 494.879 808C495.971 805.582 497.167 802.332 498.077 799.68L495.971 799.238C495.295 801.916 494.073 805.582 492.981 808.104L490.927 808.208L491.135 810.08ZM488.821 806.388C488.483 809.768 487.807 812.628 486.845 814.942C485.857 814.24 484.791 813.59 483.803 813.018C484.323 810.99 484.895 808.702 485.441 806.388H488.821ZM489.627 804.542L489.289 804.594H485.831C486.247 802.8 486.637 801.032 486.949 799.446L485.103 799.238C484.791 800.85 484.427 802.696 484.011 804.594H481.177V806.388H483.621C482.867 809.612 482.087 812.81 481.437 815.02L483.049 815.878L483.361 814.76C484.245 815.306 485.181 815.956 486.039 816.606C484.817 818.868 483.231 820.506 481.333 821.494C481.749 821.884 482.243 822.586 482.529 823.054C484.557 821.832 486.221 820.116 487.547 817.802C488.639 818.712 489.575 819.622 490.225 820.428L491.395 818.894C490.693 818.036 489.627 817.048 488.379 816.086C489.653 813.2 490.459 809.482 490.797 804.776L489.627 804.542ZM501.795 814.292V820.09H494.541V814.292H501.795ZM492.695 823.002H494.541V821.832H501.795V822.898H503.719V812.524H492.695V823.002ZM528.419 800.148H520.489V801.708H528.419V800.148ZM529.381 803.554H519.137V805.14H529.381V803.554ZM526.599 815.566V819.934H522.049V815.566H526.599ZM528.341 813.98H520.333V822.69H522.049V821.494H528.341V813.98ZM520.359 812.056H528.419V810.496H520.359V812.056ZM520.359 808.598H528.419V807.064H520.359V808.598ZM543.187 808.078H537.363V799.316H535.439V808.078H529.355V809.976H535.439V822.976H537.363V809.976H543.187V808.078ZM566.171 816.996C566.197 816.814 566.197 816.632 566.197 816.45V814.734H572.801V816.996H566.171ZM562.713 811.9H575.973V813.46H562.713V811.9ZM562.713 809.17H575.973V810.652H562.713V809.17ZM562.713 806.414H575.973V807.922H562.713V806.414ZM573.347 802.774C574.049 803.528 574.725 804.464 575.089 805.114H569.265C569.941 804.49 570.643 803.658 571.267 802.774H573.347ZM580.705 816.996H574.751V814.734H577.949V805.114H575.375L576.753 804.49C576.493 803.996 576.051 803.346 575.531 802.774H580.471V801.188H572.203C572.489 800.668 572.723 800.122 572.931 799.576L571.085 799.16C570.383 801.11 569.057 803.008 567.471 804.256C567.913 804.438 568.589 804.802 569.031 805.114H563.935L565.339 804.568C565.157 804.074 564.767 803.398 564.351 802.774H568.797V801.188H561.985C562.245 800.668 562.505 800.148 562.739 799.628L560.971 799.16C560.165 801.162 558.735 803.19 557.149 804.516C557.617 804.724 558.371 805.27 558.735 805.556C559.515 804.802 560.295 803.84 561.023 802.774H562.349C562.869 803.528 563.363 804.49 563.623 805.114H560.815V814.734H564.299V816.424C564.299 816.606 564.299 816.788 564.273 816.996H557.695V818.608H563.649C562.921 819.674 561.335 820.766 558.111 821.572C558.527 821.936 559.047 822.586 559.307 823.028C563.467 821.806 565.157 820.22 565.807 818.608H572.801V822.95H574.751V818.608H580.705V816.996ZM385.978 844.82V846.926H409.586V844.82H385.978ZM446.506 846.25V844.274H436.626C436.652 843.78 436.652 843.286 436.652 842.818V838.216H447.156V836.24H424.458V838.216H434.624V842.792C434.624 843.286 434.624 843.78 434.572 844.274H425.264V846.25H434.364C433.662 850.02 431.348 853.842 423.964 856.364C424.38 856.728 424.952 857.56 425.134 858.028C432.076 855.636 434.884 852.048 435.976 848.304C437.952 853.244 441.202 856.52 446.506 858.028C446.792 857.482 447.364 856.65 447.832 856.234C442.242 854.856 438.914 851.372 437.224 846.25H446.506ZM464.732 839.776H472.922V845.886H474.742V839.776H483.062V843.286H484.856V838.346H474.742V836.838H483.348V835.278H464.472V836.838H472.922V838.346H462.99V843.286H464.732V839.776ZM476.094 845.184H482.438V843.884H476.094V845.184ZM476.094 841.18V842.454H481.814V841.18H476.094ZM471.57 841.18H466.006V842.454H471.57V841.18ZM465.46 845.184H471.57V843.884H465.46V845.184ZM485.22 848.304V846.718H462.678V848.304H472.714C472.558 848.902 472.376 849.552 472.194 850.15H464.68V857.924H466.526V851.736H470.374V857.768H472.116V851.736H476.068V857.768H477.836V851.736H481.918V856.052C481.918 856.286 481.84 856.364 481.554 856.39C481.242 856.416 480.384 856.416 479.344 856.39C479.578 856.832 479.838 857.508 479.942 857.976C481.346 857.976 482.308 857.976 482.958 857.69C483.608 857.404 483.764 856.936 483.764 856.078V850.15H474.014C474.222 849.578 474.482 848.954 474.69 848.304H485.22ZM516.472 849.968C515.666 851.45 514.522 852.62 513.014 853.53C511.064 853.062 509.01 852.62 506.956 852.23C507.476 851.528 508.022 850.748 508.568 849.968H516.472ZM503.992 840.868H507.918V844.378H503.992V840.868ZM509.764 837.098H513.95V839.282H509.764V837.098ZM520.112 840.868V844.378H515.796V840.868H520.112ZM509.764 844.378V840.868H513.95V844.378H509.764ZM523.752 849.968V848.356H509.66C510.18 847.602 510.674 846.848 511.116 846.146L510.414 845.964H522.01V839.282H515.796V837.098H523.102V835.382H500.898V837.098H507.918V839.282H502.172V845.964H509.01C508.542 846.718 507.996 847.524 507.45 848.356H500.274V849.968H506.332C505.344 851.346 504.382 852.698 503.576 853.712L505.396 854.336L505.942 853.634C507.528 853.946 509.088 854.284 510.622 854.648C508.048 855.584 504.772 856.052 500.638 856.286C500.95 856.702 501.236 857.404 501.366 857.95C506.514 857.586 510.466 856.806 513.378 855.324C516.68 856.182 519.592 857.144 521.776 858.028L522.946 856.468C520.944 855.714 518.292 854.882 515.328 854.102C516.758 853.01 517.824 851.658 518.604 849.968H523.752ZM546.658 845.574H541.198V840.14H546.658V845.574ZM541.198 853.53V847.29H546.658V853.53H541.198ZM543.382 834.186C543.2 835.408 542.732 837.15 542.342 838.398H539.43V857.326H541.198V855.272H548.426V838.398H544.11C544.552 837.28 545.02 835.85 545.462 834.576L543.382 834.186ZM561.14 838.32H553.366C553.808 837.098 554.172 835.85 554.484 834.576L552.638 834.134C551.806 837.696 550.402 841.284 548.66 843.572C549.076 843.832 549.908 844.352 550.246 844.664C551.156 843.442 551.962 841.856 552.69 840.114H559.294C558.956 850.462 558.566 854.414 557.708 855.324C557.448 855.662 557.162 855.714 556.642 855.714C556.044 855.714 554.484 855.714 552.794 855.558C553.158 856.104 553.392 856.884 553.444 857.456C554.9 857.534 556.382 857.586 557.292 857.482C558.176 857.404 558.774 857.17 559.346 856.442C560.386 855.168 560.724 851.164 561.14 839.308V838.32ZM557.032 850.02C556.2 848.486 554.406 845.99 552.95 844.144L551.442 845.028C552.872 846.9 554.614 849.474 555.394 851.034L557.032 850.02ZM584.566 840.79L584.28 840.868H576.688V842.792H583.448C582.2 847.966 579.444 851.84 576.064 853.946C576.506 854.258 577.286 855.012 577.598 855.48C581.394 852.906 584.54 848.096 585.84 841.284L584.566 840.79ZM597.566 838.45C596.032 840.478 593.484 843.078 591.404 844.898C590.494 843.052 589.766 841.076 589.22 839.022V834.316H587.218V855.246C587.218 855.766 587.036 855.922 586.516 855.948C585.996 855.948 584.332 855.974 582.46 855.896C582.772 856.468 583.162 857.43 583.24 858.002C585.632 858.002 587.14 857.95 587.998 857.612C588.856 857.248 589.22 856.624 589.22 855.246V844.092C591.274 849.422 594.394 853.79 598.892 856C599.204 855.428 599.88 854.648 600.348 854.258C596.916 852.776 594.212 849.942 592.21 846.432C594.446 844.69 597.254 841.96 599.308 839.698L597.566 838.45ZM621.746 834.784C620.134 838.762 617.248 842.35 613.972 844.56C614.44 844.898 615.272 845.626 615.61 846.042C618.886 843.598 621.902 839.724 623.774 835.356L621.746 834.784ZM618.184 844.014V845.886H623.488C622.89 850.28 621.46 854.388 615.35 856.416C615.792 856.832 616.338 857.612 616.598 858.106C623.202 855.714 624.866 851.008 625.542 845.886H632.25C631.938 852.438 631.574 855.038 630.898 855.688C630.664 855.974 630.352 856.026 629.806 856.026C629.208 856.026 627.596 856 625.906 855.844C626.27 856.416 626.504 857.196 626.556 857.768C628.168 857.846 629.78 857.898 630.638 857.82C631.548 857.716 632.094 857.56 632.64 856.91C633.524 855.922 633.914 852.932 634.278 844.95C634.304 844.69 634.33 844.014 634.33 844.014H618.184ZM628.896 835.46C630.82 839.308 634.096 843.494 636.956 845.808C637.32 845.262 638.048 844.508 638.542 844.092C635.734 842.116 632.406 838.216 630.716 834.732L628.896 835.46Z" fill="#A0CA77"/>
</svg>
