<svg width="274" height="274" viewBox="0 0 274 274" fill="none" xmlns="http://www.w3.org/2000/svg">
<path d="M137 274C110.327 274 85.9864 267.888 64.9095 255.943C43.646 243.905 27.3254 227.238 16.4139 206.31C5.50238 185.661 0 163.437 0 140.38C0 96.8584 12.9632 62.2264 38.4234 37.4099C63.8836 12.5934 97.1777 0 137.187 0C163.393 0 187.361 5.92633 208.438 17.5012C229.701 29.1686 246.115 45.7438 257.306 66.6712C268.404 87.4133 274 111.211 274 137.417C274 163.993 268.125 188.161 256.467 209.181C244.716 230.479 227.836 246.776 206.293 257.703C184.936 268.537 161.621 274 137 274ZM137.187 12.9638C100.628 12.9638 70.5051 24.2609 47.563 46.6698C24.6208 68.9861 13.0565 100.47 13.0565 140.38C13.0565 161.4 18.0926 181.586 27.9782 200.384C37.7706 218.996 52.4125 233.905 71.4377 244.739C90.5562 255.573 112.659 261.129 137.093 261.129C159.662 261.129 180.926 256.128 200.417 246.22C219.629 236.497 234.644 221.959 245.089 202.977C255.628 183.809 261.037 161.77 261.037 137.417C261.037 113.341 255.907 91.5803 245.835 72.7827C235.856 54.0777 221.214 39.3545 202.189 28.8908C182.978 18.3346 161.155 12.9638 137.187 12.9638Z" fill="white"/>
<path d="M189.133 142.047H189.319L155.466 46.9476C152.948 39.8175 143.342 38.5211 138.958 44.6326L79.9244 126.768H80.111C70.7849 140.195 65.6556 157.048 69.759 176.771C74.049 197.513 88.691 215.57 108.182 222.793C146.886 237.146 186.521 211.125 192.117 171.678C193.609 161.4 192.304 151.307 189.133 142.047Z" fill="white"/>
<path d="M122.078 228.904C110.234 197.328 142.316 77.1348 142.316 77.1348L136.907 233.256L122.078 228.904Z" fill="#A0CA77"/>
<path d="M124.503 183.531C124.503 183.531 96.6181 137.88 99.789 139.269C106.224 141.954 117.042 154.825 134.295 178.16" fill="#A0CA77"/>
</svg>
