<svg width="324" height="324" viewBox="0 0 324 324" fill="none" xmlns="http://www.w3.org/2000/svg">
<rect x="3" y="3" width="318" height="318" rx="102" stroke="#FFD5C2" stroke-width="6"/>
<path d="M271.216 167.621L261.409 155.425L204.083 201.521L182.825 175.085C212.48 146.062 215.813 98.7216 189.28 65.7244C161.04 30.6039 109.688 25.0281 74.5839 53.2557C39.4635 81.4963 33.8877 132.847 62.1282 167.968C88.6614 200.965 135.614 207.87 170.326 185.136L191.583 211.572L134.257 257.669L144.064 269.865L201.39 223.769L242.737 275.188L255.237 265.137L213.89 213.718L271.216 167.621ZM76.4637 156.441C54.5901 129.238 58.9088 89.4648 86.1112 67.5913C113.314 45.7177 153.087 50.0364 174.961 77.2388C196.834 104.441 192.487 144.211 165.3 166.072C138.098 187.946 98.3244 183.627 76.4637 156.441Z" fill="#FFD5C2"/>
</svg>
