<svg width="324" height="324" viewBox="0 0 324 324" fill="none" xmlns="http://www.w3.org/2000/svg">
<rect x="2.5" y="2.5" width="319" height="319" rx="102.5" stroke="#98CDD0" stroke-width="5"/>
<path d="M77.1504 95.1555L139.367 156.725C113.187 188.917 115.231 236.331 145.327 266.114C177.36 297.814 229.012 297.544 260.712 265.511C292.411 233.478 292.141 181.826 260.109 150.126C229.998 120.328 182.566 118.78 150.663 145.31L88.447 83.7401L163.05 87.4496L163.757 73.1346L61.1764 68.0215L67.3613 170.543L81.6681 169.686L77.1504 95.1555ZM247.155 163.216C271.966 187.769 272.175 227.775 247.622 252.586C223.069 277.397 183.062 277.606 158.252 253.053C133.441 228.5 133.232 188.494 157.785 163.683C182.352 138.887 222.359 138.677 247.155 163.216Z" fill="#98CDD0"/>
</svg>
